<svg xmlns="http://www.w3.org/2000/svg" width="512" height="512" viewBox="0 0 512 512" role="img" aria-label="Fasting Mode logo">
  <defs>
    <linearGradient id="bg" x1="71" y1="42" x2="441" y2="482" gradientUnits="userSpaceOnUse">
      <stop offset="0" stop-color="#17305d"/>
      <stop offset="0.34" stop-color="#071329"/>
      <stop offset="1" stop-color="#02040d"/>
    </linearGradient>
    <radialGradient id="topLight" cx="0" cy="0" r="1" gradientUnits="userSpaceOnUse" gradientTransform="translate(128 56) rotate(61) scale(234 276)">
      <stop stop-color="#5d83c8" stop-opacity="0.72"/>
      <stop offset="0.34" stop-color="#2b4e8f" stop-opacity="0.24"/>
      <stop offset="1" stop-color="#02040d" stop-opacity="0"/>
    </radialGradient>
    <linearGradient id="arc" x1="115" y1="309" x2="396" y2="309" gradientUnits="userSpaceOnUse">
      <stop offset="0" stop-color="#2c64d7" stop-opacity="0"/>
      <stop offset="0.18" stop-color="#4c8cff"/>
      <stop offset="0.5" stop-color="#1f62df"/>
      <stop offset="0.82" stop-color="#4c8cff"/>
      <stop offset="1" stop-color="#2c64d7" stop-opacity="0"/>
    </linearGradient>
    <linearGradient id="cross" x1="205" y1="124" x2="318" y2="356" gradientUnits="userSpaceOnUse">
      <stop stop-color="#ffffff"/>
      <stop offset="0.5" stop-color="#edf4ff"/>
      <stop offset="1" stop-color="#b8c9f4"/>
    </linearGradient>
    <filter id="tileShadow" x="-20%" y="-20%" width="140%" height="140%" color-interpolation-filters="sRGB">
      <feDropShadow dx="0" dy="24" stdDeviation="22" flood-color="#000" flood-opacity="0.42"/>
    </filter>
    <filter id="crossGlow" x="-60%" y="-60%" width="220%" height="220%" color-interpolation-filters="sRGB">
      <feDropShadow dx="0" dy="0" stdDeviation="10" flood-color="#dce8ff" flood-opacity="0.48"/>
      <feDropShadow dx="0" dy="14" stdDeviation="11" flood-color="#07122b" flood-opacity="0.62"/>
    </filter>
    <filter id="arcGlow" x="-30%" y="-80%" width="160%" height="260%" color-interpolation-filters="sRGB">
      <feDropShadow dx="0" dy="0" stdDeviation="10" flood-color="#3c83ff" flood-opacity="0.72"/>
      <feDropShadow dx="0" dy="10" stdDeviation="11" flood-color="#123a8d" flood-opacity="0.7"/>
    </filter>
  </defs>
  <rect x="32" y="32" width="448" height="448" rx="92" fill="url(#bg)" filter="url(#tileShadow)"/>
  <rect x="32" y="32" width="448" height="448" rx="92" fill="url(#topLight)"/>
  <path d="M115 250c6 88 66 144 141 144s135-56 141-144c-25 75-75 110-141 110S140 325 115 250Z" fill="url(#arc)" filter="url(#arcGlow)"/>
  <g filter="url(#crossGlow)">
    <path d="M232 126c0-7.18 5.82-13 13-13h22c7.18 0 13 5.82 13 13v94h78c7.18 0 13 5.82 13 13v23c0 7.18-5.82 13-13 13h-78v78c0 7.18-5.82 13-13 13h-22c-7.18 0-13-5.82-13-13v-78h-78c-7.18 0-13-5.82-13-13v-23c0-7.18 5.82-13 13-13h78v-94Z" fill="url(#cross)"/>
    <path d="M245 113h22c7.18 0 13 5.82 13 13v94h78c7.18 0 13 5.82 13 13v23c0 7.18-5.82 13-13 13h-78v78c0 7.18-5.82 13-13 13h-22c-7.18 0-13-5.82-13-13v-78h-78c-7.18 0-13-5.82-13-13v-23c0-7.18 5.82-13 13-13h78v-94c0-7.18 5.82-13 13-13Z" fill="none" stroke="#ffffff" stroke-opacity="0.34" stroke-width="2"/>
  </g>
</svg>
